<?xml version="1.0" standalone="no"?>
<!DOCTYPE svg PUBLIC "-//W3C//DTD SVG 20010904//EN"
 "http://www.w3.org/TR/2001/REC-SVG-20010904/DTD/svg10.dtd">
<svg version="1.0" xmlns="http://www.w3.org/2000/svg"
 width="50.000000pt" height="50.000000pt" viewBox="0 0 50.000000 50.000000"
 preserveAspectRatio="xMidYMid meet">

<g transform="translate(0.000000,50.000000) scale(0.100000,-0.100000)"
fill="#000000" stroke="none">
<path d="M214 450 c-12 -4 -31 -21 -43 -36 -27 -34 -26 -99 1 -163 23 -52 19
-66 -24 -89 -48 -25 -98 -77 -98 -101 0 -21 3 -21 200 -21 192 0 200 1 200 20
0 23 -56 90 -75 90 -8 0 -26 11 -42 24 l-27 24 20 48 c12 27 22 70 23 97 2 48
-4 57 -63 105 -17 14 -41 15 -72 2z m56 -20 c0 -5 7 -10 15 -10 42 0 57 -108
23 -165 -10 -16 -18 -42 -18 -57 0 -18 -7 -29 -20 -33 -34 -11 -60 4 -60 33 0
15 -8 41 -18 57 -10 17 -19 53 -20 82 -2 46 1 54 29 77 31 26 69 35 69 16z
m-71 -321 c13 -45 10 -55 -14 -45 -21 8 -31 36 -16 45 6 4 9 15 5 24 -3 9 -2
17 3 17 6 0 15 -18 22 -41z m36 -6 c-7 -17 -8 -17 -15 2 -5 11 -9 27 -9 35 -1
12 2 11 15 -2 11 -11 14 -23 9 -35z m46 6 c-8 -21 -10 -22 -16 -6 -4 10 -2 24
6 33 17 20 23 5 10 -27z m45 24 c-4 -9 -1 -20 5 -24 7 -4 9 -14 6 -23 -7 -17
-34 -32 -43 -23 -8 8 18 87 29 87 5 0 6 -8 3 -17z m-186 -18 c-11 -13 -10 -19
5 -35 18 -20 17 -20 -29 -20 -43 0 -46 2 -36 19 12 23 61 63 68 56 3 -2 -1
-11 -8 -20z m261 -12 c34 -39 32 -43 -17 -43 -47 0 -47 0 -29 20 14 16 16 23
7 32 -7 7 -12 16 -12 20 0 12 32 -6 51 -29z"/>
</g>
</svg>
