<?xml version="1.0" standalone="no"?>
<!DOCTYPE svg PUBLIC "-//W3C//DTD SVG 20010904//EN"
 "http://www.w3.org/TR/2001/REC-SVG-20010904/DTD/svg10.dtd">
<svg version="1.0" xmlns="http://www.w3.org/2000/svg"
 width="64.000000pt" height="64.000000pt" viewBox="0 0 64.000000 64.000000"
 preserveAspectRatio="xMidYMid meet">

<g transform="translate(0.000000,64.000000) scale(0.100000,-0.100000)"
fill="#000000" stroke="none">
<path d="M295 581 c-85 -21 -106 -50 -116 -163 -9 -92 -9 -92 22 -139 20 -31
29 -58 27 -76 -3 -26 -10 -30 -90 -56 -90 -29 -102 -41 -72 -71 13 -14 50 -16
254 -16 204 0 241 2 254 16 30 29 18 42 -71 71 -80 27 -88 32 -91 57 -2 17 8
44 27 75 31 48 31 48 22 135 -5 54 -15 93 -24 104 -9 9 -20 29 -26 45 -9 23
-16 27 -48 26 -21 -1 -51 -4 -68 -8z m116 -118 c5 -5 14 -35 19 -67 8 -53 7
-61 -17 -99 -29 -48 -71 -86 -93 -86 -22 0 -64 38 -93 85 -22 36 -24 47 -18
100 4 32 10 64 13 69 8 13 176 11 189 -2z m-126 -273 c9 -14 58 -13 73 2 15
15 22 8 29 -35 5 -34 4 -36 -31 -42 -52 -10 -106 2 -106 23 1 47 20 76 35 52z"/>
</g>
</svg>
